<?xml version="1.0" encoding="utf-8"?>
<!-- Generator: Adobe Illustrator 18.1.1, SVG Export Plug-In . SVG Version: 6.00 Build 0)  -->
<svg version="1.1" id="レイヤー_1" xmlns="http://www.w3.org/2000/svg" xmlns:xlink="http://www.w3.org/1999/xlink" x="0px"
	 y="0px" viewBox="0 0 264.1 130.1" enable-background="new 0 0 264.1 130.1" xml:space="preserve">
<path d="M177.1,66.7c-0.5-1.4,1.9-1.7,3.1-1.1C180.2,67.1,178,67.8,177.1,66.7L177.1,66.7z"/>
<path d="M136.4,113.8c-0.6,1.7-3.7,1.6-4.2-0.2c1.2-0.7,2.7-0.7,3.9,0.1L136.4,113.8z"/>
<path d="M32.4,15.6c2,9.9,3.9,19.8,5.9,29.8c0.4,1.9,1,4.1,2.8,4.8c1,0.4,2,0.2,3.1,0c12.5-2.4,25-4.8,37.5-7.3
	c8.3-1.6,13.3-10.3,15.3-18.5C99,16.1,99.4,7.3,103.8,0c9.5,11.6,13.1,27.8,9.6,42.4c-0.8,3.2-2,6.5-4.7,8.3
	c-4.4,2.9-10.2,0.6-15.3-0.7c-12-3.2-24.6-0.6-36.7,2.4c-9.6,2.4-19.3,5-27.7,10.2C16.9,69.8,8,82.2,4.9,96c2-0.6,4.1-1.1,6.1-1.7
	c-1.6,4.2-6.6,6.8-11,5.7c0.1-11.2,5.4-22.3,14.1-29.4c6.8-5.6,5-16.2,5.2-25C19.5,34.4,24.4,23.4,32.4,15.6 M105.3,48.1
	c1.6-0.6,2.2-2.4,2.6-4.1c2.4-10.5,2.2-21.6-0.8-32c-0.5-1.7-2.1-3.8-3.6-2.8c0.8,12.9-3.8,26-12.6,35.4c3.7,1,7.4,2.1,11.1,3.1
	C103.1,48.2,104.2,48.5,105.3,48.1 M31.3,28.7c-0.9-0.2-1.9-0.4-2.8-0.6c-4.1,9-6,18.9-5.4,28.8c0.1,2,0.9,4.5,2.8,4.5
	c1.3-3.8,7.9-3,9.6-6.7c0.9-2-0.2-4.3-1-6.3C31.6,42.2,30.6,35.4,31.3,28.7z"/>
<path d="M187.6,62.3c0.9-0.5,1.8,1.4,0.8,1.7c-1.1,1.1-2.9,1.5-4.4,0.9C184,63.1,185.9,61.8,187.6,62.3L187.6,62.3z"/>
<path d="M83.1,104.9c-3,1.7-6,3.3-9,5c3.9-1.7,9,1.6,9,5.8c-6.8-3.8-16.5-0.6-19.7,6.5c16.8-0.7,33.7-1.3,50.5-2
	c-5-6.8-10.1-13.5-15.1-20.3c-1.2-1.7-2.7-3.5-4.8-3.7c-1.5-0.2-3,0.5-4.3-0.1c-2.2-1-2-4.2-3.3-6.2c-2-3.3-7-2.7-10.4-0.9
	c-3.4,1.8-6.8,4.4-10.6,4s-6.2-6.7-2.6-8c0.9,3.9,6.7,3.7,10.1,1.6c3.4-2.1,7-5.2,10.8-4.1c2.8,0.8,4.5,3.7,6.8,5.6
	c2.3,1.8,6.8,1.8,7.2-1.2c0.7-5.3,1.3-10.5,2-15.8c0.5-3.7,3.7-8.8,6.6-6.4c-3.9,10.2-7.8,21.8-3.5,31.8c4,9.1,14.4,16.1,13.2,26
	c5.7-3.2,13.5-2.2,18.2,2.3c2,1.9,5.9,0.4,6.2-2.3c3.6,1,1.1,7.3-2.7,7.5s-7-2.6-10.5-4c-3.9-1.5-8.1-1.3-12.3-1.1
	c-32.5,1.5-65,3-97.5,4.5c-7.4,0.3-11.4-9.3-9.5-16.5c1.8-7.2,7-13.1,9.3-20.1c3.7-11.4,16.1-19.3,28-17.8
	c6.6,0.8,11.7-10.5,17.5-7.2c-6.1,5.8-13.4,10.4-21.3,13.3c1.2-0.4,1.1-2.3,0.1-3s-2.3-0.6-3.5-0.4c-7.2,1.6-13,7.2-16.5,13.7
	c-3.5,6.5-5,13.8-6.5,21.1c-0.9,4.3-1.2,10,2.8,11.9c1.6,0.7,3.4,0.6,5.1,0.5c5.4-0.4,10.9-0.9,16.3-1.3c11-0.9,24.1-3.1,28.7-13.2
	c-0.8-3.5-6.4-6.2-4.3-9.2c1.2-1.8,4-1.2,5.7,0c1.8,1.2,3.5,2.9,5.6,2.7c2.3-0.2,3.8-2.3,5.6-3.7c1.8-1.4,5.2-1.6,5.7,0.7
	C86.4,102.7,84.7,104.1,83.1,104.9z"/>
<path d="M76.2,79.5c-0.4-0.6-0.8-1.1-1.2-1.7c0.9-1.2,2.1-2.1,3.6-2.6c0.5,0.7,0.7,1.6,0.5,2.5c-0.8,0.5-1.7,1-2.5,1.5L76.2,79.5z"
	/>
<path d="M150.6,109.8c-0.2,2.5,2,4.7,4.4,5.5c2.4,0.8,5,0.4,7.5,0.1c25.6-3.6,51.3-5.8,77.1-6.8c5.7-0.2,12-0.1,16.1,3.7
	c-3.5,1.6-7.5,1.7-11.4,1.8c-34,0.8-67.9,3.8-101.5,8.9c2.2-3.1,4.5-6.4,5.2-10.1c0.7-3.8-0.5-8.2-3.9-10c3.2-7.2-6.8-16-2.5-22.6
	c2-3,6.1-3.7,9.7-4.1c31.6-3.5,63.3-6.9,94.9-10.4c2.3-0.2,4.8-0.4,6.5,1c1.4,1.2,1.9,3.1,2.3,4.9c2.9,12.3,5.8,24.7,8.7,37
	c0.7,2.9-0.1,7.4-3,6.7c-1.5-0.4-2.2-2.2-2.6-3.7c-2.9-11.4-5.8-22.7-8.6-34.1c-1.5-5.8-9.4-6.4-15.3-5.8c-28.2,3-56.4,5.9-84.5,8.9
	c-3.2,0.3-7.6,2.9-5.7,5.6C148.9,93,151.2,101.5,150.6,109.8z"/>
<path d="M78.1,62.7c-1.6,0.8-3.6,0.7-5.1-0.2c1.5-0.7,3.1-1.5,4.6-2.2C78.5,60.6,78.8,62.1,78.1,62.7L78.1,62.7z"/>
<path d="M213.5,49.6c-1.5-0.1-2.8-1.7-2.4-3.2c0.3-1.5,2.1-2.5,3.6-1.9c3.8,1.5,8.6,0,10.9-3.4c-12.9-0.5-25.6-5.9-34.9-14.9
	c-1.8,4.3-3.5,8.6-5.3,12.8c-0.8,1.8-1.7,3.8-3.5,4.6c-1.2,0.5-2.7,0.4-4,0.3c-9.8-1.2-19.3-4.3-27.9-9c-0.2,11.2-1,22.3-2.4,33.4
	c-0.2,1.9-0.6,4-2.2,5.1c-1.6,1.1-4.4-0.2-3.9-2c3.4-11.3,4.7-23.3,3.6-35c-0.1-1.3-0.2-2.7,0.5-3.8c1.4-2.2,4.8-1.5,7.2-0.6
	c4.6,1.8,9.2,3.6,13.9,5.4c5.4,2.1,12.6,3.9,16.3-0.6c3.9-4.6,1.1-12.7,5.5-16.7c12.3,13,31.3,16.7,48.9,19.7
	c1.4,0.2,1.7,2.3,0.8,3.5s-2.4,1.5-3.8,1.8C227.5,46.6,220.5,48.1,213.5,49.6z"/>
<path d="M136.5,76.8c-0.4-0.1-0.7-0.4-1-0.6c-8.2-6.8-16.4-13.6-24.6-20.4c-0.8-0.6-1.6-1.4-1.7-2.3c-0.1-1,0.9-2.1,1.8-1.6
	c9.4,5.4,18,12,25.8,19.5c0.9,0.9,1.8,1.9,2,3.1S137.7,77.1,136.5,76.8z"/>
<path d="M198,40.5c0.8-0.1,1.7-0.3,2.5-0.4c0.5,0.8,0.6,1.7,0.5,2.6c-1.4,0.5-2.6,1.4-3.5,2.5c-1.4-1.1-1-3.7,0.6-4.4L198,40.5z"/>
<path d="M107.1,91.7c0-1.1,0-2.1,0-3.2c3.2-0.2,5,4.7,2.6,6.7C108.4,94.3,107.5,93.1,107.1,91.7L107.1,91.7z"/>
<path d="M56.7,83.9c-3.9,2-7.9,4-11.8,5.9c-2.3,1.1-4.6,2.3-7.2,2.2c-2-0.1-4.1-1.3-4.6-3.3c-0.5-2,1.6-4.3,3.5-3.5
	c-0.1,1.4,1.4,2.6,2.9,2.6c1.4,0,2.8-0.7,4-1.4c6.4-3.7,12.8-7.3,19.1-11c1.1-0.6,2.9-1.1,3.4,0.1C64.7,79.7,60.5,82,56.7,83.9z"/>
<path d="M65.1,56.4c1-0.1,2-0.1,3-0.2c-0.8,2.9-4.4,4.6-7.2,3.5c0.4-1.8,2.3-3,4.1-2.6L65.1,56.4z"/>
<path d="M174.5,50.1c-1.6,0.8-3.4-1-3.4-2.8c2.5,0,5,0.9,7,2.5c-0.1,1.6-2.9,1.9-3.4,0.4L174.5,50.1z"/>
<path d="M213.6,51.2c2.9,1.5,5.8,3.1,8.7,4.6c-1.2,3.5-5.5,4.9-9.2,5c-2.8,0.1-5.8-0.3-8.4,0.8s-4.5,4.6-2.8,6.8
	c-3.5-1.8-5.3-6.3-4-10c5.2,0.3,10.4-0.6,15.2-2.6C212.9,54.3,213,52.7,213.6,51.2z"/>
<path d="M126.6,78.9c-1.7-1.7-3.4-3.4-5.1-5.1c2.5-0.6,5.2,1.4,5.5,3.9L126.6,78.9z"/>
<path d="M35,110.5c2.2,1.6,4.4,3.2,6.6,4.8c-5.6-0.3-11.2,1.8-15.3,5.6c-1.1,1-3-0.5-2.8-2s1.5-2.6,2.7-3.4c1.2-0.9,2.6-1.8,2.9-3.3
	c0.4-1.9-1.1-3.7-2.2-5.4s-1.5-4.4,0.3-5.3c5.8,3.4,13.6,4.4,19.2,0.7C45.7,107.5,40.1,111.5,35,110.5z"/>
<path d="M165.7,49.2c0.3,1,0.6,2,0.9,3c-2.9,0.3-5.9-1.1-7.5-3.5c2.1-0.9,4.5-0.6,6.4,0.7L165.7,49.2z"/>
<path d="M154.9,69.1c-0.9-4.9-1.2-9.9-0.8-14.9c0.1-1.2,0.2-2.5,1-3.4c0.8-0.9,2.3-1.3,3.1-0.4c-2.5,7.9,3.3,17.4,11.4,18.7
	c1.2,1.3-1.2,3-2.9,2.8c-1.6-0.2-3.1-0.8-4.3-1.8c-1.3-1.1-2.3-2.6-3.9-3.2C156.9,66.4,154.5,67.5,154.9,69.1z"/>
<path d="M24.4,72.4c4.5-5.4,12.4-7.6,19-5.4c-7.1,1.7-13.7,5.1-19.4,9.7C22.6,75.9,23.3,73.7,24.4,72.4z"/>
<path d="M206.9,52.9c-3.5,1.4-7.9,0.1-10.1-3c2.5-0.9,5.2-1.5,7.9-1.8C205.4,49.7,206.1,51.3,206.9,52.9z"/>
<path d="M110,71.7c-0.4-1.2,1.5-1.7,2.7-1.5c1,4.2-2.5,8.9-6.8,9.1C107.3,76.8,108.7,74.2,110,71.7L110,71.7z"/>
<path d="M102.2,59.6c-4.8,1.5-8.5,5.9-9.3,10.8c-0.9-3.1-1.1-6.8,0.8-9.5C95.6,58.3,99.9,57.3,102.2,59.6z"/>
<path d="M90.2,55.8c-5.7,0.9-11.6,0.1-16.9-2.2c5.3-1.4,10.9-1.4,16.3-0.1C89.8,54.3,90,55.1,90.2,55.8z"/>
<path d="M191.5,42.2c-0.8,1.2-2.6,1.4-3.6,0.4c1.9-3.1,4-6,6.3-8.7c0.6,0.9,1.2,1.9,1.9,2.8C194.9,38.8,193.4,40.7,191.5,42.2
	L191.5,42.2z"/>
<path d="M175.2,63.2c-0.3,2.2-3.6,1.9-5.6,0.8c-3.3-1.7-6.5-3.3-9.8-5c1.6-2.9,6-1.5,8.9,0.2C170.8,60.6,173,61.9,175.2,63.2z"/>
</svg>
