<?xml version="1.0" encoding="utf-8"?>
<!-- Generator: Adobe Illustrator 18.1.1, SVG Export Plug-In . SVG Version: 6.00 Build 0)  -->
<svg version="1.1" id="レイヤー_1" xmlns="http://www.w3.org/2000/svg" xmlns:xlink="http://www.w3.org/1999/xlink" x="0px"
	 y="0px" viewBox="0 0 239 86.8" enable-background="new 0 0 239 86.8" xml:space="preserve">
<path d="M139.5,20.5c2.1,2.6,4,5.5,7.1,6.6c2.6,1,5.4,0.5,8.1,0c26.1-4.7,52.1-9.3,78.2-14c5.6-1,6.7,7.6,5.6,13.1
	c-3,15.2-3.1,31-0.3,46.2C159.2,81.6,79.6,86.4,0,86.8C3.6,71.6,7.4,56.1,15.8,43c7-11,17.1-19.8,28.1-26.9
	C58.6,6.7,75.6,0.1,93.1,0C110.6-0.1,128.5,6.9,139.5,20.5 M133.7,23.7c-10.4-15.2-31.1-20-49.4-17.8C47,10.4,14.3,41.4,7.9,78.5
	c5.5,2.2,11.7,2.2,17.6,2.1c65-1,130-4.7,194.8-11.1c2.8-0.3,5.9-0.7,7.5-3c1.1-1.6,1.3-3.6,1.4-5.5c0.6-11.4,1.2-22.8,1.8-34.2
	c0.1-2.1,0.1-4.5-1.4-6c-1.7-1.6-4.5-1.3-6.8-0.8c-22.1,4.4-44.2,8.8-66.4,13.2c-5.4,1.1-11.5,2-16.1-1.1
	C137.4,30.1,135.7,26.7,133.7,23.7z"/>
<path d="M82.7,54c-0.6,6,9,9.5,8,15.3c-3.1,1.6-6.6-1.2-8.8-3.9c-2.2-2.7-5.1-5.9-8.5-5c-2.5,0.6-3.9,3.3-6,4.9
	c-2.1,1.6-6.2,1.1-6-1.5c0.1-1.2,1.2-2.1,2.2-2.8c2-1.5,4.1-3,6.1-4.4c2.3-1.7,2.8-5.1,1.9-7.9s-2.9-5-4.9-7.1
	c-0.3-2.1,2.4-3.7,4.4-3.2c2.1,0.5,3.6,2.3,4.8,4c1.2,1.7,2.5,3.6,4.4,4.6c3.6-4.2,8.8-7.1,14.3-7.9c0.6,3.3-2.5,6-5.4,7.7
	C86.4,48.6,83,50.6,82.7,54 M78.1,55.7c1.2-1.3,1.4-3.5,0.3-4.9c-1.7,0.8-2.9,2.7-2.8,4.6c0.9,0.2,1.7,0.4,2.6,0.6L78.1,55.7z"/>
<path d="M34.1,64.6c-2,1.4-2.8,3.9-4.3,5.7c-1.5,1.9-4.6,3-6.1,1.2c1.2-4.4,4.2-8.3,8.1-10.7c2.4-1.5,1.2-5.3-0.6-7.4
	c-1.9-2.1-4.3-4.6-3.6-7.3c-0.5-1.6,1.6-3.2,3.2-2.8c1.7,0.4,2.9,1.9,3.8,3.3c1,1.4,2,3,3.6,3.6c4.7,1.7,7.8-5.3,12.5-7
	c1.4-0.5,3.4-0.3,3.8,1.2c0.4,1.3-0.8,2.6-1.8,3.5c-2.5,2.2-5.1,4.3-7.6,6.5c-2.1,1.8-0.5,5.2,1.4,7.1c2,1.9,4.5,4.1,4,6.8
	c-1,0.6-1.9,1.1-2.9,1.7c-1.8-2-3.6-4.1-5.9-5.4C39.4,63.3,36.3,63,34.1,64.6 M40.4,58.8c0.1-0.8,0.3-1.7,0.4-2.5
	c-0.8-0.5-1.7-0.6-2.6-0.5c-0.5,0.7-0.7,1.6-0.5,2.5c0.7,0.5,1.6,0.6,2.5,0.5L40.4,58.8z"/>
</svg>
