<?xml version="1.0" encoding="utf-8"?>
<!-- Generator: Adobe Illustrator 18.1.1, SVG Export Plug-In . SVG Version: 6.00 Build 0)  -->
<svg version="1.1" id="レイヤー_1" xmlns="http://www.w3.org/2000/svg" xmlns:xlink="http://www.w3.org/1999/xlink" x="0px"
	 y="0px" viewBox="0 0 140 168.9" enable-background="new 0 0 140 168.9" xml:space="preserve">
<path d="M131.6,36.8c5.1,17.1-4,35-12.7,50.5c-4.5,8-1,17.9,2.6,26.4c6.1,14.4,12.2,28.8,18.2,43.2c1.8,4.3-4.5,7.3-9.2,7.8
	c-36.2,3.5-72.7,4.9-109.1,4.1c-6.1-0.1-13.5-1.3-15.6-6.9c-1-2.8-0.3-6,0.4-8.9c4.4-18.2,8.8-36.3,13.1-54.5
	c2.4-9.8-7.8-17.5-13.5-25.8c-7.5-10.9-7.4-26-1.7-37.9c5.8-11.9,16.5-21,28.5-26.7C56-3.3,84.8-2.5,107.5,10
	C118.3,15.9,128.1,24.9,131.6,36.8 M87.2,8.5C71,4.1,53.4,3.7,38,10C22.5,16.4,9.7,30.2,7,46.7c-2.7,16.5,6.5,34.9,22.3,40.5
	c-6.2,24.3-11.7,48.9-16.5,73.5c39.4,2.5,79.1,1.2,118.3-3.7c-6.8-16.3-13.6-32.5-20.4-48.8c-2.3-5.4-4.5-11.9-1.4-16.9
	c10.3-16.7,20.9-36.6,14.1-55C117.9,21.4,102.4,12.6,87.2,8.5z"/>
<path d="M52.1,51.3c-0.5-3.9-1-7.8-1.5-11.7c-0.2-1.9-0.4-4,0.9-5.3c1.7-1.7,4.9-0.9,6.3,1.1c1.4,2,1.6,4.5,1.7,6.9
	c0.1,2.4,0.2,4.7,0.3,7.1c0.2,3.3-1.2,8-4.4,7.4C53.1,56.3,52.4,53.6,52.1,51.3z"/>
<path d="M33.2,47.9c-0.1,2.3-0.2,4.6-0.3,6.8c0,0.7-0.1,1.5-0.4,2.2c-1.1,2.3-4.8,2.1-6.4,0c-1.6-2-1.6-4.8-1.3-7.4
	c0.3-2.6,0.7-5.2-0.4-7.6c-0.9-2,1.2-4.3,3.3-4.3c2.2,0,4,1.8,4.7,3.8C33.4,43.6,33.3,45.8,33.2,47.9z"/>
</svg>
