<?xml version="1.0" encoding="utf-8"?>
<!-- Generator: Adobe Illustrator 18.1.1, SVG Export Plug-In . SVG Version: 6.00 Build 0)  -->
<svg version="1.1" id="レイヤー_1" xmlns="http://www.w3.org/2000/svg" xmlns:xlink="http://www.w3.org/1999/xlink" x="0px"
	 y="0px" viewBox="0 0 454 418.2" enable-background="new 0 0 454 418.2" xml:space="preserve">
<path d="M154.6,363.1c-0.1,1.3-1.3,2.6-2.5,2.1c-2.2-0.5-3.6-3.6-2.1-5.2s5,0.7,3.7,2.6L154.6,363.1z"/>
<path d="M444.8,388.7c-0.2,8.1-1.1,17.5-7.8,22.1c-4.2,2.9-9.7,3.1-14.9,3.1c-129.3,1.4-258.5,2.8-387.8,4.2
	c-7.1,0.1-14.8-0.1-20.2-4.5c-7.4-6-7.6-17-7.2-26.5c4.9-115.7,4-231.6-2.8-347.1c-0.4-7.2,8.9-10.2,16.1-10.9
	C145.1,17.6,270.3,10.5,395.5,3.4c8.9-0.5,18.4-0.9,26.1,3.6c6.3,3.7,10.4,10.1,13.7,16.6c18.3,35.9,17.6,78.1,16.4,118.3
	C449.5,224.2,447.1,306.5,444.8,388.7L444.8,388.7z M415.9,9.8C410.3,7.4,404,7.7,398,8C275.2,13.8,152.5,21.8,29.9,31.8
	c-9.2,0.8-21.2,4.5-20.8,13.7C15.3,161.9,16,278.6,11.5,395c-0.3,7.9,6.1,14.9,13.5,17.8c7.4,2.9,15.6,2.7,23.5,2.4
	c120.8-4.1,241.7-5.6,362.5-4.4c10.1,0.1,22.5-1,26.9-10.2c1.6-3.4,1.8-7.4,1.9-11.1c2.2-87.9,4.3-175.7,6.5-263.6
	c0.8-34.5,1.2-70.9-15.7-100.9C427,18.8,422.5,12.7,415.9,9.8z"/>
<path d="M232.4,53.6c-55,2.5-109.8,10.7-163.2,24.3c-2.3,0.6-4.7,1.3-6.2,3c-1.6,1.9-2,4.5-2.2,7c-4.9,51.6-6.1,103.6-3.5,155.4
	c-4-4.1-4.4-10.3-4.6-16c-1.4-46.5-0.1-93.1,3.9-139.5c0.2-2.8,0.5-5.8,2.1-8.2c2.3-3.4,6.7-4.7,10.8-5.7
	c51.8-12.5,104.7-20.5,157.9-23.7C230,50,233.6,51.5,232.4,53.6z"/>
<path d="M284.6,195.8c-6.3-1.6-10.4-7.9-12.5-14.1c-7.7-22.9,5.4-49.5,26.4-61.6c21-12.1,47.6-11.3,70.2-2.7
	c3.9,1.5,7.7,3.2,10.7,6.1c3.2,3.2,5,7.6,6.3,12c6.6,21.8,3,46.4-9.6,65.4c-2.5,3.8-6.8,7.8-11,5.9c14.9-18.9,20.8-44.6,15.7-68.2
	c-0.9-4.2-2.3-8.5-5.3-11.6c-2.2-2.3-5.2-3.7-8.1-4.9c-14.7-6.1-31.1-8.8-46.8-5.8s-30.4,12.1-38.7,25.7
	c-8.3,13.6-9.4,31.7-1.4,45.5c1.9,3.3,6.9,3.6,10.1,1.7c3.3-1.9,5.3-5.4,7.2-8.7c-2.8,8.2-8.1,15.6-15,20.9
	C283.4,199.6,284,197.7,284.6,195.8z"/>
<path d="M68.6,354.4c-16.5,2.2-33.4,4.8-49.5,0.8c133.2-16.6,267.8-21.5,401.8-14.6c4.5,0.2,9.7,0.9,12,4.7
	c-15.2-0.3-30.4-0.6-45.6-0.9C281,342.3,174.1,340.2,68.6,354.4z"/>
<path d="M178.1,153.9c-21,5-42.9,6-64.2,2.9c-1.1-2.5,1.6-4.8,4-6.2c17.5-10.5,34-22.8,49.1-36.6c-14.2-3.2-29-3.4-43.3-0.6
	c-8.2,1.6-17.1,4.1-24.5,0.2c17.5-5.3,36.1-7.3,54.4-5.6c6,0.5,12.2,1.4,18-0.4c2.3-0.7,4.4,2.3,3.9,4.6c-0.6,2.4-2.7,4-4.7,5.5
	c-16.3,11.8-32.5,23.7-48.8,35.5c19.4,1.9,39,0.5,58-4c3.1-0.7,5.7,3.2,5,6.3c-0.7,3.1-3.3,5.4-5.8,7.4
	c-7.8,6.2-15.5,12.5-23.3,18.7c-1.4,1.2-4.2,1.9-4.6,0.1c8.8-7.7,17.6-15.4,26.5-23.2C179.2,157.1,180.1,153.9,178.1,153.9z"/>
<path d="M329.7,255.5c4-3.2,8-6.4,11.9-9.6c1.4-1.1,2.9-2.3,4.7-2.4s3.8,1.4,3.4,3.2c-5.5,3.5-11.1,7-15.4,11.9
	c-1.5,1.7-2.7,3.5-4,5.4c-1.8,2.6-3.6,5.2-5.4,7.8c-2.1,3-3.9,7.9-0.7,9.8c2,1.1,0.3,4.2-1.7,5.4c-2,1.2-4.6,2.9-3.7,5.1
	c2.2,0.3,4.3,0.9,6.4,1.7c1.1,1.3-1.2,2.7-2.9,2.8c-6.1,0.4-12.2-0.2-18.1-1.7c-2.8-0.7-5.3,1.8-7.2,4c-7.8,9.5-15.6,19-23.4,28.5
	c-2.3-2-0.3-5.7,1.6-8c8.8-10.3,17.6-20.6,26.4-30.9c2.7,1.6,5.6,3.4,8.7,3.2s6.3-3.2,5.4-6.2c-3.8-0.8-8,0-11.2,2.2
	c2-6.1,6.1-11.4,11.4-14.9c1-0.7,0.8-2.4-0.1-3.1c-0.9-0.8-2.3-0.8-3.5-0.7c-3.6,0.5-6.9,2.8-8.7,6.1c-0.5,0.9-1.9,0.7-2.5-0.1
	c-0.6-0.8-0.5-1.9-0.4-2.8c0.5-4.4,1.8-8.7,3.7-12.7c1.5,4.1,6.9,5.3,11.2,4.4C321,262.4,325.5,258.9,329.7,255.5L329.7,255.5z
	 M316.1,280.9c1.9-0.6,1.6-3.4,1-5.4c-2.5,0.1-3.3,4.2-1.1,5.3L316.1,280.9z"/>
<path d="M298.8,261.6c-2.9,5.7-7.1,10.8-12.1,14.8C288.2,270,292.8,264.4,298.8,261.6z"/>
<path d="M238.5,240.4c-5.8,4.6-13.9,4.5-21.3,4.6c-46.4,1.2-92.5,22.4-137.9,13c-7.8-1.6-16.8-5.6-18-13.5
	c9,7.2,20.8,10.1,32.3,11.1C142.1,259.9,190,235.1,238.5,240.4z"/>
<path d="M329.9,229c2.5-0.3,5,2.1,4.7,4.6c-4.1-0.3-8.1-0.3-12.2,0c0.2,5.4,10.3,6.2,10.2,11.6c-2.9,1-6.3,0.1-8.3-2.2
	c-2.1-2.5-6.2-2-8.8,0c-2.6,2-4,5-5.9,7.7s-4.4,5.3-7.6,5.5c3.3-6.3,7.1-12.3,11.3-18c1.1-1.4-1-3.4-2.8-3.3c-1.8,0.1-3.5,1.1-5.3,1
	c-1.8-0.1-3.4-2.7-1.8-3.7c4.8-2.9,7.4-9,6.3-14.4c-0.8-3.9,2.1-7.5,4.8-10.4c10-10.9,20.2-21.6,30.7-32c2.2-2.2,5-4.5,7.9-3.6
	c0.5,1-0.4,2.2-1.2,3c-12.4,12.3-24.8,24.6-37.2,36.9c-1.7,1.7-1.2,4.9,0.8,6.1c2.1,1.2,5.1-0.2,5.6-2.5c0.3-1.5,0-3.4,1.3-4.1
	c0.8-0.4,1.9,0,2.6,0.6c2.3,2.1,2.2,5.9,1.1,8.8c-1.2,2.9-3.2,5.4-4.2,8.4c1.3,1.9,4.2-0.3,5.4-2.3c5.4-8.9,12.1-17.7,21.7-21.5
	c1.2,4.4-3.3,8-7,10.7C337.5,219.4,333.3,223.9,329.9,229L329.9,229z M319.8,223.8c-1.4-1.4-3.9-0.9-5.4,0.4
	c-1.5,1.3-2.2,3.3-2.8,5.2c3.3,2.3,8.6-1.4,7.7-5.2L319.8,223.8z"/>
<path d="M393.2,311.1c-6.5-23.1-13-46.2-19.4-69.3c-2.5-9-5.1-18.2-10.2-26.2c-1.5-2.4,2.3-5.2,4.9-4s3.6,4.2,4.3,6.9
	c8.2,29,16.4,58,24.6,87.1c0.5,1.8,1,3.7,0.1,5.3C396.6,312.6,393.7,312.9,393.2,311.1z"/>
<path d="M361.8,306.9c-1.4,1.4-3.9,2.6-4.8,0.8c3.3-7,8.1-13.5,14.8-17.3c1.5,0.4,2.1,2.2,1.7,3.7c-0.4,1.5-1.5,2.6-2.6,3.6
	C367.9,300.8,364.8,303.8,361.8,306.9z"/>
<path d="M259,307.5c-1.2-2.9-0.4-6.2,0.5-9.2c8.7-30.5,17.4-61,26.1-91.5c0.4-1.4,1.1-3.1,2.6-3.4c2.6-0.4,3,3.6,2.3,6.1
	c-9.3,31.7-18.6,63.4-27.9,95.1C262.1,306.5,260.5,308.6,259,307.5z"/>
<path d="M238.6,235.4c1.1-21.8,2.3-43.5,3.4-65.3c0.1-1.1,0.1-2.3,0.8-3.1c0.7-0.8,2.2-1.1,2.8-0.1c-0.2,19.8-0.9,39.7-2,59.5
	C243.4,230,242.3,234.8,238.6,235.4z"/>
<path d="M242.3,158.7c2.2-2,4.9-3.3,7.8-4c-2.9-3.2-5-7.2-6-11.4c-0.8-3.5-0.8-7.2-0.9-10.8c-0.2-25.8-0.4-51.7-0.6-77.5
	c0-2,0.1-4.3,1.5-5.7c1.9,1.6,2.1,4.4,2.2,6.8c0.9,25.3,1.1,50.5,0.6,75.8c-0.1,5.8,0.1,12.3,4.5,16.1c1.8,1.5,4.1,2.4,5.8,4
	c1.7,1.6,2.6,4.6,1,6.3C252.9,159.3,247.5,159.5,242.3,158.7z"/>
<path d="M103.6,214.3c5.8-6.9,13.6-12,22.2-14.6c-5,4.3-9.9,8.6-14.9,12.9c28.5,1.4,57.1-0.3,85.2-5c1,1.8-1.5,3.5-3.5,4.1
	c-26.5,7.1-54.3,6.4-81.7,5.8C108,217.4,104.6,216.9,103.6,214.3z"/>
<path d="M331.9,166.2c4.9-6.3,9.8-12.6,14.7-18.9c2.1-2.7,5.8-5.6,8.4-3.4c-8.2,9.4-16.4,18.8-24.6,28.1
	C329.3,170.2,330.6,167.9,331.9,166.2z"/>
<path d="M288.4,159.1c-1.4-1.7-0.2-4.3,1.1-6.1c6.7-9.5,13.6-19.3,23.2-25.9c1.4,0.8,0.5,3-0.6,4.3
	C304.2,140.6,296.3,149.9,288.4,159.1z"/>
<path d="M332.1,314c-2.4-0.5-1.6-4.2-0.2-6.3c8.8-12.4,18.6-24.2,29.3-35c1.4-1.4,3-2.9,4.9-2.8c1.9,0,3.6,2.7,2.2,4
	C354.7,285.8,342.6,299.3,332.1,314z"/>
<path d="M161.4,369.5c-5.2,1.7-10.6,3.4-15,6.8c-4.4,3.3-7.7,8.5-7.3,14c-0.6,0.1-1.3,0.2-1.9,0.3c-2.6-3.4-5.3-8.2-2.7-11.5
	c1.2-1.5,3.1-2.2,4.9-2.8s3.7-1.6,4.6-3.3c0.9-1.7-0.2-4.4-2.1-4.3c-1.4,0-1.8-2.2-0.7-3s2.7-0.5,3.8,0.3s2,1.9,3.1,2.7
	c3.2,2.3,8.5,0.9,10.1-2.7c1-2.2,0.8-5,2.1-7c1.3-2.1,5.5-2.1,5.4,0.3c-0.1,2.5-4.5,4-3.2,6.1c2.1,0.9,4.4-0.5,6.5-1.5
	c2.1-1,5-1.6,6.3,0.3c1.8,2.5-1.7,5.8-4.8,5.8C167.5,369.9,164.4,368.5,161.4,369.5z"/>
<path d="M302.8,175.8c3.7-7.1,7.9-13.8,12.8-20.1c4.8-6.3,10.2-12.2,16.1-17.6c1.7,1.6,0.2,4.3-1.3,6.1
	C321.2,154.7,312,165.2,302.8,175.8z"/>
<path d="M148.6,405.5c-1.4,0.3-2.2-1.7-1.8-3c0.5-1.3,1.6-2.3,2.1-3.6c1-2.5-0.5-5.3-1.2-7.9c-2.2-8,4.8-17.1,13.1-17
	c1.2,0,2.4,0.2,3.4,0.8c2.2,1.3,3,4.2,2.5,6.7c-0.5,2.5-2,4.6-3.5,6.7c-1.5,2.1-3.2,4.7-2.2,7c0.9,2.1,3.7,2.8,6,2.7s4.7-0.8,7-0.2
	c0.2,0.8,0.4,1.7,0.6,2.5c-2.5,1.3-5.4,1.9-8.2,1.8c-3.4-0.2-6.7-1.5-10.1-1.5C153,400.3,149.1,402.2,148.6,405.5L148.6,405.5z
	 M157.3,385.9c-1,1.2-3-1-2.2-2.4s2.7-1.7,4.3-2.1c1.6-0.4,3.3-1.5,3.1-3.1c-3.1-1.1-6.8,0-8.9,2.5c-2.1,2.5-2.4,6.4-0.8,9.2
	c2.4,1.2,5.8-1.4,5.1-4.1L157.3,385.9z"/>
<path d="M198.1,396.2c-0.4-1.3,0.4-2.6,1.1-3.6c2.2-3.1,4.3-6.3,6.5-9.4c-1.8-1.2-4,0.4-5.9,1.6c-1.8,1.2-5.1,1.2-5.2-0.9
	c2.7-2.7,6.3-4.7,10.1-5.5c0-1.9-2.3-2.8-4-3.6s-3.7-2.8-2.5-4.3c1.1-1.4,3.3-0.5,4.7,0.5c2.6,1.7,5.2,3.5,6.9,6.2
	c1.6,2.6,2,6.3-0.1,8.7c4.2,4.3,11.1,5.7,16.6,3.2c0.8,0.4,1.3,1.3,1.2,2.2c-2,3.4-6.4,5.2-10.2,4.1c-2.8-0.8-5.4-3-8.2-2.3
	c-2.2,0.5-3.5,2.6-5.3,4C202,398.1,198.8,398.3,198.1,396.2z"/>
<path d="M259.7,369.8c-2.4,0.8-5.1,1-7.6,0.7c-1.6-1.4,0.7-3.7,2.7-4.5c1.9-0.7,3.8-1.4,5.6-2.1c2.7-1,6.6-1.7,7.9,0.9
	c2.3,4.6-7.9,7.7-6.7,12.7c6.3-1.2,13,4.4,12.9,10.8c-0.1,6.4-6.8,11.9-13.1,10.6c-1.8-0.4-3.6-1.3-4.4-2.9
	c-1.1-2.3,0.2-5.2,2.4-6.5s4.9-1.4,7.4-1c1.9-2.3-0.4-6-3.4-6.6c-2.9-0.6-5.8,0.9-8.4,2.4c-2.6,1.4-5.5,2.9-8.4,2.4
	C248.6,379.7,258.2,376.9,259.7,369.8L259.7,369.8z M264.1,394.5c0.8,0.6,1.7-1.1,0.9-1.9c-0.9-0.3-2,0-2.7,0.6c0.5,0.5,1,1,1.5,1.5
	L264.1,394.5z"/>
</svg>
